<svg xmlns="http://www.w3.org/2000/svg" version="1.1" xmlns:xlink="http://www.w3.org/1999/xlink" xmlns:svgjs="http://svgjs.dev/svgjs" width="2000" height="550" viewBox="0 0 2000 550"><g transform="matrix(1,0,0,1,-1.2121212121212466,1.2127380074338703)"><svg viewBox="0 0 396 109" data-background-color="#ffffff" preserveAspectRatio="xMidYMid meet" height="550" width="2000" xmlns="http://www.w3.org/2000/svg" xmlns:xlink="http://www.w3.org/1999/xlink"><g id="tight-bounds" transform="matrix(1,0,0,1,0.2400000000000091,-0.24034262329143985)"><svg viewBox="0 0 395.52 109.4803724333983" height="109.4803724333983" width="395.52"><g><svg viewBox="0 0 585.1621803033936 161.97353720053323" height="109.4803724333983" width="395.52"><g transform="matrix(1,0,0,1,189.64218030339367,22.385633578366026)"><svg viewBox="0 0 395.52 117.20227004380118" height="117.20227004380118" width="395.52"><g id="textblocktransform"><svg viewBox="0 0 395.52 117.20227004380118" height="117.20227004380118" width="395.52" id="textblock"><g><svg viewBox="0 0 395.52 117.20227004380118" height="117.20227004380118" width="395.52"><g transform="matrix(1,0,0,1,0,0)"><svg width="395.52" viewBox="1.12 -37.5 128.19 37.99" height="117.20227004380118" data-palette-color="#2cb1bc"><path d="M14.55-11.28L14.55-35.55 21.73-35.55 21.73-10.94Q21.73-5.76 18.85-2.64 15.97 0.49 11.43 0.49L11.43 0.49Q6.54 0.49 3.83-2.42 1.12-5.32 1.12-10.5L1.12-10.5 8.33-10.5Q8.33-5.47 11.43-5.47L11.43-5.47Q14.55-5.47 14.55-11.28L14.55-11.28ZM37.74-12.38L37.74-14.06Q37.74-20.07 40.57-23.49 43.4-26.9 48.41-26.9L48.41-26.9Q53.46-26.9 56.29-23.49 59.13-20.07 59.13-14.01L59.13-14.01 59.13-12.33Q59.13-6.3 56.32-2.91 53.51 0.49 48.46 0.49L48.46 0.49Q43.38 0.49 40.56-2.92 37.74-6.32 37.74-12.38L37.74-12.38ZM44.67-14.06L44.67-12.33Q44.67-5.25 48.46-5.25L48.46-5.25Q51.95-5.25 52.22-11.16L52.22-11.16 52.24-14.06Q52.24-17.68 51.24-19.42 50.24-21.17 48.41-21.17L48.41-21.17Q46.65-21.17 45.66-19.42 44.67-17.68 44.67-14.06L44.67-14.06ZM95.55-14.38L95.55-12.35Q95.55-5.93 93.5-2.72 91.45 0.49 87.05 0.49L87.05 0.49Q83.61 0.49 81.53-2.61L81.53-2.61 81.31 0 74.94 0 74.94-37.5 81.85-37.5 81.85-24.27Q83.8-26.9 87-26.9L87-26.9Q91.4-26.9 93.45-23.72 95.5-20.53 95.55-14.38L95.55-14.38ZM88.64-11.57L88.64-14.09Q88.64-18.26 87.83-19.69 87.03-21.12 85.02-21.12L85.02-21.12Q82.85-21.12 81.85-19.14L81.85-19.14 81.85-7.1Q82.78-5.25 85.07-5.25L85.07-5.25Q87.05-5.25 87.82-6.54 88.59-7.84 88.64-11.57L88.64-11.57ZM129.16-22.24L118.86-5.74 129.31-5.74 129.31 0 110.65 0 110.65-4.32 120.86-20.65 110.9-20.65 110.9-26.42 129.16-26.42 129.16-22.24Z" opacity="1" transform="matrix(1,0,0,1,0,0)" fill="#2cb1bc" class="wordmark-text-0" data-fill-palette-color="primary" id="text-0"></path></svg></g></svg></g></svg></g></svg></g><g><svg viewBox="0 0 161.97353720053326 161.97353720053323" height="161.97353720053323" width="161.97353720053326"><g><svg></svg></g><g id="icon-0"><svg viewBox="0 0 161.97353720053326 161.97353720053323" height="161.97353720053323" width="161.97353720053326"><g><path transform="scale(1.61974,1.61974)" d="M30 100c-16.569 0-30-13.431-30-30v-40c0-16.569 13.431-30 30-30h40c16.569 0 30 13.431 30 30v40c0 16.569-13.431 30-30 30z" fill="#2cb1bc" fill-rule="nonzero" stroke="none" stroke-width="1" stroke-linecap="butt" stroke-linejoin="miter" stroke-miterlimit="10" stroke-dasharray="" stroke-dashoffset="0" font-family="none" font-weight="none" font-size="none" text-anchor="none" style="mix-blend-mode: normal" data-fill-palette-color="accent"></path></g><g transform="matrix(1,0,0,1,32.394707440106664,32.39470744010665)"><svg viewBox="0 0 97.18412232031993 97.18412232031993" height="97.18412232031993" width="97.18412232031993"><g><svg xmlns="http://www.w3.org/2000/svg" xmlns:xlink="http://www.w3.org/1999/xlink" version="1.1" x="0" y="0" viewBox="5 5.206 90 90" enable-background="new 0 0 100 100" xml:space="preserve" height="97.18412232031993" width="97.18412232031993" class="icon-z$-0" data-fill-palette-color="quaternary" id="z$-0"><g display="none" fill="#ffffff" data-fill-palette-color="quaternary"></g><g fill="#ffffff" data-fill-palette-color="quaternary"><path d="M67.568 28.997c0.935 0.031 1.978 0.059 3.021 0.1 4.991 0.195 9.98 0.428 14.972 0.572 2.043 0.059 3.461 1.177 4.828 2.467 0.16 0.151 0.296 0.384 0.335 0.598 0.309 1.702 0.935 3.339 0.75 5.138-0.273 2.655-0.415 5.325-0.588 7.989-0.196 3.016-0.289 6.032-0.221 9.058 0.047 2.085-0.183 4.174-0.242 6.263-0.092 3.25-0.107 6.493 0.19 9.746 0.242 2.652 0.449 5.33 0.177 8.006-0.049 0.481-0.364 0.824-0.879 0.89-0.341 0.044-0.763-0.087-1.022 0.07-1.499 0.906-3.134 0.674-4.744 0.656-3.253-0.037-6.507-0.076-9.76-0.146-1.392-0.03-2.781-0.162-4.173-0.206-1.276-0.04-2.556-0.068-3.831-0.023-2.434 0.085-4.868 0.246-7.299 0.353-4.641 0.203-9.293 0.165-13.941 0.215-1.51 0.016-3.019-0.007-4.529-0.01-6.389-0.013-12.778-0.029-19.167-0.037-2.208-0.003-4.416 0.019-6.624 0.017-1.163-0.001-2.319-0.054-3.45-0.398-0.936-0.284-1.651-0.784-2.137-1.654-0.524-0.938-0.803-1.901-0.731-2.99 0.192-2.896 0.08-5.799 0.281-8.703 0.151-2.179 0.266-4.384 0.219-6.581-0.045-2.088-0.016-4.183-0.19-6.261-0.32-3.833 0.034-7.658 0.015-11.487-0.011-2.199 0.203-4.4 0.33-6.599 0.04-0.696 0.041-1.409 0.204-2.079 0.555-2.293 2.162-3.865 4.211-4.108 3.805-0.451 7.615-0.863 11.426-1.255 0.567-0.058 1.154 0.107 1.733 0.123 2.09 0.059 4.181 0.108 6.272 0.141 0.961 0.015 1.825-0.292 2.666-0.97 0.195-0.692 0.388-1.48 0.641-2.248 0.216-0.655 0.496-1.29 0.757-1.93 0.934-2.287 2.861-3.32 5.097-3.767 2.042-0.408 4.109-0.772 6.221-0.68 1.393 0.06 2.793 0.109 4.183 0.037 2.263-0.118 4.356 0.532 6.459 1.209 0.929 0.299 1.653 0.851 2.194 1.632 0.66 0.954 1.324 1.913 1.888 2.925 0.819 1.472 1.939 2.59 3.446 3.332C66.868 28.554 67.156 28.752 67.568 28.997zM12.069 55.375c0.003 0 0.006 0 0.009 0-0.041 5.375-0.085 10.751-0.117 16.126-0.004 0.669-0.046 1.365 0.117 2.001 0.189 0.738 0.493 1.432 1.436 1.654 3.616 0.854 7.286 1.249 10.988 1.271 4.037 0.024 8.037 0.463 12.039 0.891 1.565 0.167 3.113 0.285 4.682 0.063 0.773-0.109 1.57-0.2 2.342-0.131 2.68 0.24 5.35 0.343 8.021-0.079 0.329-0.052 0.671-0.024 1.007-0.027 6.158-0.058 12.316-0.145 18.474-0.159 3.148-0.007 6.235-0.593 9.355-0.849 0.659-0.054 1.295-0.349 1.95-0.496 0.96-0.216 1.551-0.791 1.901-1.704 0.351-0.915 0.373-2.003 1.395-2.596 0.197-0.114 0.215-0.615 0.233-0.942 0.05-0.894 0.068-1.79 0.077-2.686 0.026-2.463 0.049-4.925 0.058-7.388 0.016-4.47 0.465-8.942-0.08-13.408-0.013-0.111-0.013-0.224-0.011-0.336 0.043-2.91-0.104-5.81-0.289-8.715-0.213-3.335-0.627-3.527-3.515-4.39-0.533-0.159-1.097-0.269-1.651-0.292-2.002-0.082-3.992-0.443-6.014-0.087-1.209 0.213-2.438 0.1-3.673-0.095-2.65-0.418-5.34-0.521-8.009-0.795-3.222-0.331-6.483-0.317-9.728-0.37-3.244-0.053-6.491 0.014-9.736-0.015-0.681-0.006-1.322 0.011-1.967 0.268-0.513 0.204-1.071 0.298-1.61 0.436-0.624 0.16-1.001-0.428-1.541-0.514-0.33-0.052-0.667-0.102-0.999-0.095-3.47 0.072-6.951 0.01-10.406 0.279-3.128 0.243-6.252 0.491-9.386 0.529-1.169 0.014-2.191 0.371-3.211 0.822-0.755 0.333-1.31 0.911-1.471 1.725-0.217 1.094-0.432 2.205-0.473 3.316-0.165 4.474-0.339 8.95-0.201 13.429C12.098 53.135 12.069 54.255 12.069 55.375zM53.423 22.259c-0.235 0.017-0.352 0.018-0.466 0.035-2.405 0.353-4.84 0.446-7.245 0.723-2.89 0.333-3.601 0.989-4.064 4.234-0.014 0.102 0.045 0.236 0.111 0.324 0.135 0.179 0.275 0.444 0.453 0.481 0.444 0.094 0.913 0.132 1.366 0.099 0.918-0.066 1.85-0.359 2.742-0.255 1.281 0.149 2.538 0.03 3.803-0.007 2.198-0.065 4.392-0.141 6.575 0.237 0.45 0.078 0.922 0.042 1.383 0.042 0.642 0 1.24-0.867 1.058-1.501-0.326-1.131-0.868-2.143-1.664-3.008-0.231-0.251-0.503-0.518-0.811-0.637C55.586 22.609 54.478 22.28 53.423 22.259z" fill="#ffffff" data-fill-palette-color="quaternary"></path></g></svg></g></svg></g></svg></g></svg></g></svg></g><defs></defs></svg><rect width="395.52" height="109.4803724333983" fill="none" stroke="none" visibility="hidden"></rect></g></svg></g></svg>